<?xml version="1.0" standalone="no"?>
<!DOCTYPE svg PUBLIC "-//W3C//DTD SVG 20010904//EN"
 "http://www.w3.org/TR/2001/REC-SVG-20010904/DTD/svg10.dtd">
<svg version="1.0" xmlns="http://www.w3.org/2000/svg"
 width="2000.000000pt" height="2000.000000pt" viewBox="0 0 2000.000000 2000.000000"
 preserveAspectRatio="xMidYMid meet">
<metadata>
Created by potrace 1.14, written by Peter Selinger 2001-2017
</metadata>
<g transform="translate(0.000000,2000.000000) scale(0.100000,-0.100000)"
fill="#000000" stroke="none">
<path d="M7874 14279 c-16 -4 -49 -15 -74 -25 -51 -19 -199 -23 -343 -10 l-88
9 4 -24 c6 -30 -12 -140 -24 -153 -5 -6 -17 -11 -26 -12 -10 -2 -37 -6 -60 -9
-24 -3 -45 -6 -48 -6 -2 0 -19 -5 -37 -10 -30 -8 -85 -15 -212 -24 -61 -4
-144 -24 -152 -36 -3 -5 -11 -9 -19 -9 -17 0 -242 -95 -309 -130 -27 -14 -53
-33 -57 -41 -9 -15 -68 -202 -75 -234 -8 -36 -14 -89 -18 -171 -4 -62 -12 -96
-35 -147 -83 -181 -85 -189 -107 -372 -7 -68 -28 -162 -59 -270 -14 -49 -27
-97 -30 -105 -2 -8 -15 -46 -28 -85 -22 -62 -107 -324 -113 -350 -1 -5 -20
-57 -42 -115 -66 -174 -109 -309 -118 -365 -15 -104 -56 -226 -120 -355 -23
-47 -74 -150 -113 -230 -77 -157 -82 -166 -187 -345 -39 -66 -83 -141 -97
-166 -18 -31 -39 -52 -64 -64 -118 -56 -451 -274 -516 -338 -24 -23 -64 -73
-90 -112 -64 -96 -61 -92 -167 -172 -121 -91 -164 -132 -226 -213 -101 -134
-271 -316 -352 -378 -30 -23 -41 -25 -138 -25 l-105 0 -83 86 c-45 48 -91 88
-102 88 -114 8 -121 5 -164 -58 -31 -46 -55 -120 -65 -202 -9 -74 -38 -164
-76 -236 -33 -62 -134 -265 -149 -300 -5 -11 -19 -51 -30 -90 -12 -38 -39
-120 -60 -182 -22 -61 -40 -124 -40 -139 0 -40 8 -25 32 57 40 144 113 261
194 312 42 26 174 81 174 72 0 -2 18 2 41 10 23 8 45 12 50 9 5 -3 9 -1 9 4 0
6 6 9 13 8 13 -1 111 21 137 31 20 8 21 9 55 18 17 4 35 11 40 15 11 8 213 79
243 85 9 2 29 8 45 14 15 6 27 8 27 5 0 -4 7 -1 15 6 8 7 15 10 15 6 0 -3 11
-1 25 4 14 5 36 12 48 14 12 2 56 13 97 25 110 30 127 32 214 31 91 -1 109
-10 137 -66 19 -40 25 -61 34 -114 2 -14 8 -50 14 -80 14 -74 24 -152 36 -269
3 -29 8 -58 11 -62 3 -5 1 -9 -3 -9 -5 0 -7 -18 -5 -41 5 -44 -3 -39 212 -137
19 -9 58 -30 85 -46 28 -17 64 -38 80 -46 17 -8 89 -74 160 -145 72 -72 145
-137 163 -144 17 -7 32 -17 32 -22 0 -5 5 -9 10 -9 9 0 138 -86 150 -100 3 -3
25 -21 50 -40 25 -19 47 -37 50 -40 17 -20 150 -115 204 -145 47 -26 80 -37
118 -40 96 -6 171 -15 308 -39 14 -2 43 -9 66 -15 115 -31 236 -44 404 -44 98
0 128 4 200 27 149 48 266 78 435 110 11 2 61 12 110 21 160 30 261 42 397 44
l133 2 12 -28 c18 -40 91 -113 131 -130 47 -20 121 -32 226 -38 50 -3 127 -7
171 -10 44 -3 150 -8 235 -10 l156 -4 159 67 160 67 420 -3 c692 -4 910 -10
910 -22 0 -1 7 -3 15 -5 8 -2 71 -21 140 -44 104 -33 252 -77 295 -86 5 -1 28
-5 50 -10 22 -4 49 -10 60 -12 11 -2 34 -6 50 -9 42 -7 153 -43 190 -61 16 -8
78 -64 137 -124 59 -60 113 -109 119 -109 6 0 25 -11 43 -25 49 -40 63 -48
155 -97 51 -27 163 -102 193 -130 40 -37 169 -101 258 -128 41 -13 122 -48
180 -78 243 -128 212 -120 440 -126 80 -3 167 -10 194 -16 27 -6 65 -12 85
-15 20 -2 46 -6 59 -9 113 -29 147 -35 153 -28 3 4 11 25 17 47 12 44 34 62
84 70 18 3 51 11 73 17 22 6 72 16 110 23 90 17 106 21 173 40 30 9 90 23 133
30 43 8 97 23 120 34 23 11 57 23 75 27 18 3 44 17 57 30 22 22 82 128 149
264 29 60 91 264 103 340 8 55 16 94 21 102 3 4 7 16 9 25 2 10 11 45 19 78 9
33 19 73 22 89 9 51 83 265 115 334 17 37 39 90 49 117 10 28 34 86 55 130 55
120 143 354 179 477 15 52 28 127 30 171 0 9 3 17 6 17 4 0 7 6 7 13 1 18 102
268 123 302 10 17 21 59 25 95 4 36 18 98 31 139 37 111 138 293 208 376 36
42 36 42 98 125 30 41 95 120 143 175 214 246 213 245 400 363 50 31 100 63
110 70 11 6 30 17 43 22 84 36 236 152 347 264 66 67 134 133 150 147 17 14
49 47 72 75 23 27 61 70 85 95 23 25 76 82 116 126 104 116 147 131 247 88 55
-23 96 -29 190 -28 91 1 134 16 182 63 41 41 81 122 88 180 3 25 7 61 10 80 2
19 7 55 10 80 3 25 8 58 11 73 3 16 7 38 9 50 5 32 22 95 56 215 17 59 32 118
35 132 3 14 7 33 10 42 3 9 7 26 9 39 5 26 52 99 63 99 9 0 42 54 42 69 0 38
-58 -38 -122 -159 -125 -237 -176 -312 -243 -357 -32 -22 -153 -53 -302 -78
-93 -15 -179 -25 -253 -30 -47 -3 -112 -10 -145 -15 -33 -5 -109 -9 -170 -9
l-110 -1 -43 40 c-24 22 -49 40 -56 40 -7 0 -24 12 -38 28 -24 26 -128 178
-128 188 0 3 -4 10 -10 17 -5 7 -35 46 -67 87 -61 81 -71 93 -208 237 -49 52
-94 101 -98 109 -4 8 -61 54 -126 103 -196 147 -219 167 -294 260 -73 90 -151
164 -267 255 -47 37 -92 72 -100 79 -8 7 -38 30 -65 52 -145 117 -185 135
-318 141 -56 2 -124 8 -152 13 -120 23 -335 36 -501 32 -12 -1 -37 -15 -55
-33 -50 -46 -128 -106 -184 -142 -44 -28 -159 -86 -170 -86 -4 0 -198 -81
-240 -100 -40 -18 -96 -28 -137 -25 -46 3 -73 14 -238 92 -58 28 -136 63 -175
78 -94 37 -253 116 -287 142 -36 27 -238 71 -306 66 -24 -1 -112 -19 -195 -39
-84 -20 -159 -37 -167 -39 -8 -2 -15 -4 -15 -6 0 -1 -9 -3 -20 -4 -11 -1 -58
-10 -105 -19 -104 -20 -149 -25 -311 -30 -94 -4 -149 -11 -215 -30 -49 -14
-113 -27 -141 -30 -29 -4 -74 -8 -100 -11 -27 -3 -77 -8 -113 -12 -82 -9 -317
-10 -350 -1 -14 3 -53 13 -87 21 -34 8 -66 17 -71 20 -5 4 -22 9 -38 11 -44 9
-65 14 -116 30 -27 8 -48 13 -48 10 0 -3 -8 0 -18 5 -11 6 -30 12 -43 14 -37
7 -293 79 -304 85 -5 4 -37 16 -70 28 -64 23 -207 79 -240 93 -11 5 -45 17
-75 27 -36 11 -71 33 -105 64 -27 25 -97 84 -154 131 -56 46 -117 96 -135 110
-17 15 -61 42 -97 61 -37 19 -133 80 -214 134 -81 55 -196 129 -256 166 -59
36 -117 75 -128 85 -11 10 -46 33 -78 52 -131 77 -139 83 -118 92 24 10 -189
8 -231 -2z"/>
</g>
</svg>
